{"scene":0,"asset":{"generator":"ImageToStl.com","version":"2.0"},"scenes":[{"name":"Scene","nodes":[0]}],"nodes":[{"name":"Node0","children":[1,2,3]},{"name":"Node1","mesh":0},{"name":"Node2","mesh":1},{"name":"Node3","mesh":2}],"materials":[{"name":"x1","pbrMetallicRoughness":{"baseColorFactor":[0.85,0.85,0.85,1.0],"metallicFactor":0.05,"roughnessFactor":0.5},"doubleSided":true}],"meshes":[{"name":"Mesh0","primitives":[{"indices":3,"material":0,"attributes":{"POSITION":0,"NORMAL":1,"TEXCOORD_0":2}}]},{"name":"Mesh0","primitives":[{"indices":7,"material":0,"attributes":{"POSITION":4,"NORMAL":5,"TEXCOORD_0":6}}]},{"name":"Mesh0","primitives":[{"indices":11,"material":0,"attributes":{"POSITION":8,"NORMAL":9,"TEXCOORD_0":10}}]}],"accessors":[{"bufferView":0,"componentType":5126,"count":1298,"type":"VEC3","min":[-41.101254,-1.661178,-23.380175],"max":[15.166833,13.650393,18.565336]},{"bufferView":1,"componentType":5126,"count":1298,"type":"VEC3"},{"bufferView":2,"componentType":5126,"count":1298,"type":"VEC2"},{"bufferView":3,"componentType":5123,"count":7128,"type":"SCALAR"},{"bufferView":4,"componentType":5126,"count":48,"type":"VEC3","min":[11.047465,0.002331,7.916121],"max":[13.047465,3.989666,9.916121]},{"bufferView":5,"componentType":5126,"count":48,"type":"VEC3"},{"bufferView":6,"componentType":5126,"count":48,"type":"VEC2"},{"bufferView":7,"componentType":5123,"count":216,"type":"SCALAR"},{"bufferView":8,"componentType":5126,"count":24,"type":"VEC3","min":[10.374317,1.4,13.438142],"max":[12.519117,4.81014,16.085728]},{"bufferView":9,"componentType":5126,"count":24,"type":"VEC3"},{"bufferView":10,"componentType":5126,"count":24,"type":"VEC2"},{"bufferView":11,"componentType":5123,"count":108,"type":"SCALAR"}],"bufferViews":[{"target":34962,"buffer":0,"byteLength":15576,"byteOffset":0},{"target":34962,"buffer":0,"byteLength":15576,"byteOffset":15576},{"target":34962,"buffer":0,"byteLength":10384,"byteOffset":31152},{"target":34963,"buffer":0,"byteLength":14256,"byteOffset":41536},{"target":34962,"buffer":0,"byteLength":576,"byteOffset":55792},{"target":34962,"buffer":0,"byteLength":576,"byteOffset":56368},{"target":34962,"buffer":0,"byteLength":384,"byteOffset":56944},{"target":34963,"buffer":0,"byteLength":432,"byteOffset":57328},{"target":34962,"buffer":0,"byteLength":288,"byteOffset":57760},{"target":34962,"buffer":0,"byteLength":288,"byteOffset":58048},{"target":34962,"buffer":0,"byteLength":192,"byteOffset":58336},{"target":34963,"buffer":0,"byteLength":216,"byteOffset":58528}],"buffers":[{"byteLength":58744,"uri":"data:application/octet-stream;base64,"}]}